# xmcd
#
# Track frame offsets:
#	150
#	16767
#	33035
#	50383
#	66522
#	86952
#	101343
#	116326
#	130706
#	145292
#	161745
#	180869
#	196232
#	213636
#	226623
#	242135
#	254029
#	266020
#
# Disc length: 3679 seconds
#
# Revision: 1
# Processed by: cddbd v1.5.2PL0 Copyright (c) Steve Scherf et al.
# Submitted via: audiograbber 1.83.01
#
DISCID=f40e5d12
DTITLE=Airborne - No Guts No Glory
DYEAR=2010
DGENRE=Blues
TTITLE0=Born to kill
TTITLE1=No Way But The Hard Way
TTITLE2=Blonde, Bad And Beautiful
TTITLE3=Raise The Flag
TTITLE4=Bottom Of The Well
TTITLE5=White Line Fever
TTITLE6=It Ain't Over 'till It's Over
TTITLE7=Steel Town
TTITLE8=Chewin' The Fat
TTITLE9=Get Busy Livin'
TTITLE10=Armed And Dangerous
TTITLE11=Overdrive
TTITLE12=Back On The Bottle
TTITLE13=Loaded gun
TTITLE14=My Dinamite Will Blow You Sky High
TTITLE15=Rattle Your Bones
TTITLE16=Kickin' It Old School
TTITLE17=Devil's Child
EXTD=
EXTT0=
EXTT1=
EXTT2=
EXTT3=
EXTT4=
EXTT5=
EXTT6=
EXTT7=
EXTT8=
EXTT9=
EXTT10=
EXTT11=
EXTT12=
EXTT13=
EXTT14=
EXTT15=
EXTT16=
EXTT17=
PLAYORDER=
